<?xml version="1.0" encoding="utf-8"?>
<!-- Generator: Adobe Illustrator 24.0.2, SVG Export Plug-In . SVG Version: 6.00 Build 0)  -->
<svg version="1.1" id="Layer_1" xmlns="http://www.w3.org/2000/svg" xmlns:xlink="http://www.w3.org/1999/xlink" x="0px" y="0px"
	 viewBox="0 0 1500.01 1500.01" style="enable-background:new 0 0 1500.01 1500.01;" xml:space="preserve">
<style type="text/css">
	.st0{fill:#FCDA00;}
	.st1{fill:#002D74;}
	.st2{fill-rule:evenodd;clip-rule:evenodd;fill:#FFFFFF;}
	.st3{fill:#FFFFFF;}
</style>
<circle class="st0" cx="750" cy="743.18" r="691.46"/>
<g>
	<g>
		<path class="st1" d="M251.83,552.25v252.91c0,0,1.11,63.5,52.86,109.21s160.59,103.76,443.92,103.82
			c285.04,0.06,380.34-54.33,432.95-100.91c58.75-52.01,56.35-112.12,56.35-112.12V552.25H251.83z"/>
		<g>
			<path class="st2" d="M365.32,636.54c-20.95,0-36.69,13.5-36.69,35.63c0,25.01,17.56,35.96,36.69,35.96
				c19.15,0,36.72-10.95,36.72-35.96C402.03,650.04,386.26,636.54,365.32,636.54z"/>
			<polygon class="st3" points="323.67,719.32 406.98,719.32 406.98,872.07 323.67,872.07 323.67,719.32 			"/>
			<path class="st2" d="M512.95,719.32H434.2v152.75h80.7v-75.62c0-8.94,0-20.48,11.9-20.48c12.31,0,12.31,11.53,12.31,20.48v75.62
				h80.69v-75.62c0-8.94,0-20.48,11.95-20.48c12.29,0,12.29,11.53,12.29,20.48v75.62h80.72v-94.93c0-33.04-18.1-61.25-59.09-61.25
				c-26.51,0-42.3,11.23-52.02,32.5h-1.92c-7.4-20.7-24.55-32.5-49.12-32.5c-21.91,0-42.92,11.79-49.68,30.49V719.32z"/>
			<path class="st2" d="M880.19,715.89c-19.37,0-39.04,9.42-50.68,23.54v-36.19V638.8h-83.27v233.27h78.14l0.28-22.72
				c13.88,15.5,33.58,26.16,55.86,26.16c46.53,0,71.05-42,71.05-78.51C951.57,759.06,928.67,715.89,880.19,715.89z M847.91,817.42
				c-13.86,0-21.34-10.35-21.34-21.88c0-11.2,7.48-21.54,21.34-21.54c12.64,0,21.63,10.34,21.63,20.97
				C869.53,805.33,860.82,817.42,847.91,817.42z"/>
			<path class="st2" d="M1085.01,719.32v18.1c-12.23-14.89-29.37-21.54-49.97-21.54c-48.47,0-74.62,41.96-74.62,80.56
				c0,37.05,25.82,79.06,72.33,79.06c23.57,0,37.11-9.23,52.26-23.58v20.15h81.07V719.32H1085.01z M1064.72,817.42
				c-15.19,0-21.67-10.35-21.67-22.45c0-11.22,8.42-20.97,21.67-20.97c13.23,0,22.24,8.61,22.24,20.4
				C1086.95,806.2,1080.55,817.42,1064.72,817.42z"/>
		</g>
	</g>
</g>
</svg>
